<mxfile host="app.diagrams.net" modified="2023-04-06T08:32:26.606Z" agent="Mozilla/5.0 (Windows NT 10.0; WOW64) AppleWebKit/537.36 (KHTML, like Gecko) Chrome/92.0.4515.131 Safari/537.36 SLBrowser/8.0.0.12022 SLBChan/25" etag="QuDgKkz30qmMGQ7rbX1u" version="21.1.4" type="github">
  <diagram name="第 1 页" id="1xKbcyd4HU7VoUlGYTBE">
    <mxGraphModel dx="1450" dy="546" grid="0" gridSize="10" guides="1" tooltips="1" connect="1" arrows="1" fold="1" page="0" pageScale="1" pageWidth="827" pageHeight="1169" math="0" shadow="0">
      <root>
        <mxCell id="0" />
        <mxCell id="1" parent="0" />
        <mxCell id="9vQLf3wbG68wflDqKVkw-4" style="edgeStyle=none;rounded=0;orthogonalLoop=1;jettySize=auto;html=1;exitX=0.5;exitY=1;exitDx=0;exitDy=0;entryX=0.5;entryY=0;entryDx=0;entryDy=0;" edge="1" parent="1" source="9vQLf3wbG68wflDqKVkw-1" target="9vQLf3wbG68wflDqKVkw-2">
          <mxGeometry relative="1" as="geometry" />
        </mxCell>
        <mxCell id="9vQLf3wbG68wflDqKVkw-1" value="&lt;font style=&quot;font-size: 18px;&quot;&gt;开始&lt;/font&gt;" style="rounded=1;whiteSpace=wrap;html=1;" vertex="1" parent="1">
          <mxGeometry x="-290" y="90" width="120" height="60" as="geometry" />
        </mxCell>
        <mxCell id="9vQLf3wbG68wflDqKVkw-5" style="edgeStyle=none;rounded=0;orthogonalLoop=1;jettySize=auto;html=1;exitX=0.5;exitY=1;exitDx=0;exitDy=0;entryX=0.5;entryY=0;entryDx=0;entryDy=0;" edge="1" parent="1" source="9vQLf3wbG68wflDqKVkw-2" target="9vQLf3wbG68wflDqKVkw-3">
          <mxGeometry relative="1" as="geometry" />
        </mxCell>
        <mxCell id="9vQLf3wbG68wflDqKVkw-2" value="&lt;font style=&quot;font-size: 18px;&quot;&gt;处理获取接口的参数URL&lt;/font&gt;" style="rounded=0;whiteSpace=wrap;html=1;" vertex="1" parent="1">
          <mxGeometry x="-340.5" y="204" width="221" height="60" as="geometry" />
        </mxCell>
        <mxCell id="9vQLf3wbG68wflDqKVkw-12" style="edgeStyle=none;rounded=0;orthogonalLoop=1;jettySize=auto;html=1;exitX=0.5;exitY=1;exitDx=0;exitDy=0;" edge="1" parent="1" source="9vQLf3wbG68wflDqKVkw-3" target="9vQLf3wbG68wflDqKVkw-11">
          <mxGeometry relative="1" as="geometry" />
        </mxCell>
        <mxCell id="9vQLf3wbG68wflDqKVkw-14" style="edgeStyle=none;rounded=0;orthogonalLoop=1;jettySize=auto;html=1;exitX=1;exitY=0.5;exitDx=0;exitDy=0;entryX=0;entryY=0.5;entryDx=0;entryDy=0;" edge="1" parent="1" source="9vQLf3wbG68wflDqKVkw-3" target="9vQLf3wbG68wflDqKVkw-6">
          <mxGeometry relative="1" as="geometry" />
        </mxCell>
        <mxCell id="9vQLf3wbG68wflDqKVkw-3" value="&lt;font style=&quot;font-size: 18px;&quot;&gt;判断接口是否失效&lt;/font&gt;" style="rhombus;whiteSpace=wrap;html=1;" vertex="1" parent="1">
          <mxGeometry x="-338.5" y="322" width="217" height="80" as="geometry" />
        </mxCell>
        <mxCell id="9vQLf3wbG68wflDqKVkw-15" style="edgeStyle=none;rounded=0;orthogonalLoop=1;jettySize=auto;html=1;exitX=0.5;exitY=1;exitDx=0;exitDy=0;" edge="1" parent="1" source="9vQLf3wbG68wflDqKVkw-6" target="9vQLf3wbG68wflDqKVkw-9">
          <mxGeometry relative="1" as="geometry" />
        </mxCell>
        <mxCell id="9vQLf3wbG68wflDqKVkw-6" value="&lt;font style=&quot;font-size: 18px;&quot;&gt;处理从接口获取的数据&lt;/font&gt;" style="rounded=0;whiteSpace=wrap;html=1;" vertex="1" parent="1">
          <mxGeometry x="-15" y="332" width="221" height="60" as="geometry" />
        </mxCell>
        <mxCell id="9vQLf3wbG68wflDqKVkw-8" value="&lt;font style=&quot;font-size: 18px;&quot;&gt;否&lt;/font&gt;" style="text;html=1;align=center;verticalAlign=middle;resizable=0;points=[];autosize=1;strokeColor=none;fillColor=none;" vertex="1" parent="1">
          <mxGeometry x="-98" y="319" width="36" height="34" as="geometry" />
        </mxCell>
        <mxCell id="9vQLf3wbG68wflDqKVkw-16" style="edgeStyle=orthogonalEdgeStyle;rounded=0;orthogonalLoop=1;jettySize=auto;html=1;exitX=0.5;exitY=1;exitDx=0;exitDy=0;entryX=1;entryY=0.5;entryDx=0;entryDy=0;" edge="1" parent="1" source="9vQLf3wbG68wflDqKVkw-9" target="9vQLf3wbG68wflDqKVkw-10">
          <mxGeometry relative="1" as="geometry" />
        </mxCell>
        <mxCell id="9vQLf3wbG68wflDqKVkw-9" value="&lt;font style=&quot;font-size: 18px;&quot;&gt;分析JSON数据结构并存储到MySQL数据库中&lt;/font&gt;" style="rounded=0;whiteSpace=wrap;html=1;" vertex="1" parent="1">
          <mxGeometry x="-15" y="445" width="221" height="60" as="geometry" />
        </mxCell>
        <mxCell id="9vQLf3wbG68wflDqKVkw-10" value="&lt;font style=&quot;font-size: 18px;&quot;&gt;结束&lt;/font&gt;" style="rounded=1;whiteSpace=wrap;html=1;" vertex="1" parent="1">
          <mxGeometry x="-292" y="532" width="120" height="60" as="geometry" />
        </mxCell>
        <mxCell id="9vQLf3wbG68wflDqKVkw-13" style="edgeStyle=none;rounded=0;orthogonalLoop=1;jettySize=auto;html=1;exitX=0.5;exitY=1;exitDx=0;exitDy=0;entryX=0.5;entryY=0;entryDx=0;entryDy=0;" edge="1" parent="1" source="9vQLf3wbG68wflDqKVkw-11" target="9vQLf3wbG68wflDqKVkw-10">
          <mxGeometry relative="1" as="geometry" />
        </mxCell>
        <mxCell id="9vQLf3wbG68wflDqKVkw-11" value="&lt;span style=&quot;font-size: 18px;&quot;&gt;进行报错处理&lt;/span&gt;" style="rounded=0;whiteSpace=wrap;html=1;" vertex="1" parent="1">
          <mxGeometry x="-342.5" y="434" width="221" height="60" as="geometry" />
        </mxCell>
        <mxCell id="9vQLf3wbG68wflDqKVkw-17" value="&lt;font style=&quot;font-size: 18px;&quot;&gt;是&lt;/font&gt;" style="text;html=1;align=center;verticalAlign=middle;resizable=0;points=[];autosize=1;strokeColor=none;fillColor=none;" vertex="1" parent="1">
          <mxGeometry x="-220" y="397" width="36" height="34" as="geometry" />
        </mxCell>
      </root>
    </mxGraphModel>
  </diagram>
</mxfile>
